<mxfile host="app.diagrams.net" modified="2024-06-03T11:50:34.308Z" agent="Mozilla/5.0 (Windows NT 10.0; Win64; x64) AppleWebKit/537.36 (KHTML, like Gecko) Chrome/121.0.0.0 Safari/537.36" etag="CTYrOSfIh_yC_BqWE37e" version="24.4.13" type="device">
  <diagram name="Página-1" id="xSVMP1mgABQhFfRNHHzk">
    <mxGraphModel dx="2049" dy="1117" grid="1" gridSize="10" guides="1" tooltips="1" connect="1" arrows="1" fold="1" page="1" pageScale="1" pageWidth="827" pageHeight="1169" math="0" shadow="0">
      <root>
        <mxCell id="0" />
        <mxCell id="1" parent="0" />
        <mxCell id="tAIOkptniv0qNmcYxeoT-1" value="" style="group" vertex="1" connectable="0" parent="1">
          <mxGeometry x="80" y="110" width="320" height="560" as="geometry" />
        </mxCell>
        <mxCell id="tAIOkptniv0qNmcYxeoT-2" value="" style="rounded=1;whiteSpace=wrap;html=1;fillColor=#f5f5f5;gradientColor=#b3b3b3;strokeColor=#666666;container=1;" vertex="1" parent="tAIOkptniv0qNmcYxeoT-1">
          <mxGeometry x="2.35" width="320" height="560" as="geometry" />
        </mxCell>
        <mxCell id="tAIOkptniv0qNmcYxeoT-13" value="" style="group" vertex="1" connectable="0" parent="tAIOkptniv0qNmcYxeoT-1">
          <mxGeometry x="26.35294117647061" y="39.47368421052636" width="199.52941176470586" height="471.5789473684209" as="geometry" />
        </mxCell>
        <mxCell id="tAIOkptniv0qNmcYxeoT-3" value="&lt;font style=&quot;font-size: 18px;&quot;&gt;Corte&lt;/font&gt;" style="text;html=1;align=center;verticalAlign=middle;resizable=0;points=[];autosize=1;strokeColor=none;fillColor=none;container=0;" vertex="1" parent="tAIOkptniv0qNmcYxeoT-13">
          <mxGeometry x="101" width="70" height="40" as="geometry" />
        </mxCell>
        <mxCell id="tAIOkptniv0qNmcYxeoT-4" value="Carlos&amp;nbsp; =&amp;nbsp; 30pç por hr" style="text;html=1;align=center;verticalAlign=middle;resizable=0;points=[];autosize=1;strokeColor=none;fillColor=none;container=0;" vertex="1" parent="tAIOkptniv0qNmcYxeoT-13">
          <mxGeometry x="1.882352941176464" y="63.859649122807014" width="140" height="30" as="geometry" />
        </mxCell>
        <mxCell id="tAIOkptniv0qNmcYxeoT-5" value="Carlos&amp;nbsp; =&amp;nbsp; 30pç por hr" style="text;html=1;align=center;verticalAlign=middle;resizable=0;points=[];autosize=1;strokeColor=none;fillColor=none;container=0;" vertex="1" parent="tAIOkptniv0qNmcYxeoT-13">
          <mxGeometry x="1.882352941176464" y="63.859649122807014" width="140" height="30" as="geometry" />
        </mxCell>
        <mxCell id="tAIOkptniv0qNmcYxeoT-6" value="Renato&amp;nbsp; =&amp;nbsp; 35pç por hr" style="text;html=1;align=center;verticalAlign=middle;resizable=0;points=[];autosize=1;strokeColor=none;fillColor=none;container=0;" vertex="1" parent="tAIOkptniv0qNmcYxeoT-13">
          <mxGeometry x="1.882352941176464" y="112.98245614035079" width="140" height="30" as="geometry" />
        </mxCell>
        <mxCell id="tAIOkptniv0qNmcYxeoT-7" value="Lucas&amp;nbsp; =&amp;nbsp; 37pç p&lt;span style=&quot;color: rgba(0, 0, 0, 0); font-family: monospace; font-size: 0px; text-align: start;&quot;&gt;%3CmxGraphModel%3E%3Croot%3E%3CmxCell%20id%3D%220%22%2F%3E%3CmxCell%20id%3D%221%22%20parent%3D%220%22%2F%3E%3CmxCell%20id%3D%222%22%20value%3D%22Renato%26amp%3Bnbsp%3B%20%3D%26amp%3Bnbsp%3B%2035p%C3%A7%20por%20hr%22%20style%3D%22text%3Bhtml%3D1%3Balign%3Dcenter%3BverticalAlign%3Dmiddle%3Bresizable%3D0%3Bpoints%3D%5B%5D%3Bautosize%3D1%3BstrokeColor%3Dnone%3BfillColor%3Dnone%3Bcontainer%3D0%3B%22%20vertex%3D%221%22%20parent%3D%221%22%3E%3CmxGeometry%20x%3D%22108.23529411764707%22%20y%3D%22262.45614035087715%22%20width%3D%22140%22%20height%3D%2230%22%20as%3D%22geometry%22%2F%3E%3C%2FmxCell%3E%3C%2Froot%3E%3C%2FmxGraphModel%3E&lt;/span&gt;&lt;span style=&quot;color: rgba(0, 0, 0, 0); font-family: monospace; font-size: 0px; text-align: start;&quot;&gt;%3CmxGraphModel%3E%3Croot%3E%3CmxCell%20id%3D%220%22%2F%3E%3CmxCell%20id%3D%221%22%20parent%3D%220%22%2F%3E%3CmxCell%20id%3D%222%22%20value%3D%22Renato%26amp%3Bnbsp%3B%20%3D%26amp%3Bnbsp%3B%2035p%C3%A7%20por%20hr%22%20style%3D%22text%3Bhtml%3D1%3Balign%3Dcenter%3BverticalAlign%3Dmiddle%3Bresizable%3D0%3Bpoints%3D%5B%5D%3Bautosize%3D1%3BstrokeColor%3Dnone%3BfillColor%3Dnone%3Bcontainer%3D0%3B%22%20vertex%3D%221%22%20parent%3D%221%22%3E%3CmxGeometry%20x%3D%22108.23529411764707%22%20y%3D%22262.45614035087715%22%20width%3D%22140%22%20height%3D%2230%22%20as%3D%22geometry%22%2F%3E%3C%2FmxCell%3E%3C%2Froot%3E%3C%2FmxGraphModel%3E&lt;/span&gt;or hr" style="text;html=1;align=center;verticalAlign=middle;resizable=0;points=[];autosize=1;strokeColor=none;fillColor=none;container=0;" vertex="1" parent="tAIOkptniv0qNmcYxeoT-13">
          <mxGeometry y="157.19298245614027" width="140" height="30" as="geometry" />
        </mxCell>
        <mxCell id="tAIOkptniv0qNmcYxeoT-8" value="Juliana&amp;nbsp; =&amp;nbsp; 40pç por hr" style="text;html=1;align=center;verticalAlign=middle;resizable=0;points=[];autosize=1;strokeColor=none;fillColor=none;container=0;" vertex="1" parent="tAIOkptniv0qNmcYxeoT-13">
          <mxGeometry x="1.882352941176464" y="206.31578947368416" width="140" height="30" as="geometry" />
        </mxCell>
        <mxCell id="tAIOkptniv0qNmcYxeoT-9" value="Alana&amp;nbsp; =&amp;nbsp; 38pç po&lt;span style=&quot;color: rgba(0, 0, 0, 0); font-family: monospace; font-size: 0px; text-align: start;&quot;&gt;%3CmxGraphModel%3E%3Croot%3E%3CmxCell%20id%3D%220%22%2F%3E%3CmxCell%20id%3D%221%22%20parent%3D%220%22%2F%3E%3CmxCell%20id%3D%222%22%20value%3D%22Juliana%26amp%3Bnbsp%3B%20%3D%26amp%3Bnbsp%3B%2040p%C3%A7%20por%20hr%22%20style%3D%22text%3Bhtml%3D1%3Balign%3Dcenter%3BverticalAlign%3Dmiddle%3Bresizable%3D0%3Bpoints%3D%5B%5D%3Bautosize%3D1%3BstrokeColor%3Dnone%3BfillColor%3Dnone%3Bcontainer%3D0%3B%22%20vertex%3D%221%22%20parent%3D%221%22%3E%3CmxGeometry%20x%3D%22108.23529411764707%22%20y%3D%22355.7894736842105%22%20width%3D%22140%22%20height%3D%2230%22%20as%3D%22geometry%22%2F%3E%3C%2FmxCell%3E%3C%2Froot%3E%3C%2FmxGraphModel%3E&lt;/span&gt;r hr" style="text;html=1;align=center;verticalAlign=middle;resizable=0;points=[];autosize=1;strokeColor=none;fillColor=none;container=0;" vertex="1" parent="tAIOkptniv0qNmcYxeoT-13">
          <mxGeometry y="255.43859649122794" width="140" height="30" as="geometry" />
        </mxCell>
        <mxCell id="tAIOkptniv0qNmcYxeoT-10" value="quanto tempo 1.300pç" style="rounded=1;whiteSpace=wrap;html=1;fillColor=#B0B0B0;container=0;" vertex="1" parent="tAIOkptniv0qNmcYxeoT-13">
          <mxGeometry x="67.76470588235293" y="314.38596491228066" width="131.76470588235293" height="39.29824561403508" as="geometry" />
        </mxCell>
        <mxCell id="tAIOkptniv0qNmcYxeoT-11" value="?" style="rounded=1;whiteSpace=wrap;html=1;fillColor=#B0B0B0;container=0;" vertex="1" parent="tAIOkptniv0qNmcYxeoT-13">
          <mxGeometry x="67.76470588235293" y="373.33333333333337" width="131.76470588235293" height="39.29824561403508" as="geometry" />
        </mxCell>
        <mxCell id="tAIOkptniv0qNmcYxeoT-12" value="Voltar" style="rounded=1;whiteSpace=wrap;html=1;fillColor=#B0B0B0;container=0;" vertex="1" parent="tAIOkptniv0qNmcYxeoT-13">
          <mxGeometry x="67.76470588235293" y="432.28070175438586" width="131.76470588235293" height="39.29824561403508" as="geometry" />
        </mxCell>
        <mxCell id="tAIOkptniv0qNmcYxeoT-14" value="" style="rounded=1;whiteSpace=wrap;html=1;fillColor=#f5f5f5;gradientColor=#b3b3b3;strokeColor=#666666;" vertex="1" parent="1">
          <mxGeometry x="470" y="230" width="560" height="320" as="geometry" />
        </mxCell>
        <mxCell id="tAIOkptniv0qNmcYxeoT-15" value="&lt;font style=&quot;font-size: 18px;&quot;&gt;Corte&lt;/font&gt;" style="text;html=1;align=center;verticalAlign=middle;resizable=0;points=[];autosize=1;strokeColor=none;fillColor=none;container=0;" vertex="1" parent="1">
          <mxGeometry x="725.0029411764706" y="270.00368421052633" width="70" height="40" as="geometry" />
        </mxCell>
        <mxCell id="tAIOkptniv0qNmcYxeoT-16" value="Carlos&amp;nbsp; =&amp;nbsp; 30pç por hr" style="text;html=1;align=center;verticalAlign=middle;resizable=0;points=[];autosize=1;strokeColor=none;fillColor=none;container=0;" vertex="1" parent="1">
          <mxGeometry x="539.9952941176471" y="320.0033333333334" width="140" height="30" as="geometry" />
        </mxCell>
        <mxCell id="tAIOkptniv0qNmcYxeoT-17" value="Renato&amp;nbsp; =&amp;nbsp; 35pç por hr" style="text;html=1;align=center;verticalAlign=middle;resizable=0;points=[];autosize=1;strokeColor=none;fillColor=none;container=0;" vertex="1" parent="1">
          <mxGeometry x="541.9952941176471" y="362.99614035087717" width="140" height="30" as="geometry" />
        </mxCell>
        <mxCell id="tAIOkptniv0qNmcYxeoT-18" value="Lucas&amp;nbsp; =&amp;nbsp; 37pç p&lt;span style=&quot;color: rgba(0, 0, 0, 0); font-family: monospace; font-size: 0px; text-align: start;&quot;&gt;%3CmxGraphModel%3E%3Croot%3E%3CmxCell%20id%3D%220%22%2F%3E%3CmxCell%20id%3D%221%22%20parent%3D%220%22%2F%3E%3CmxCell%20id%3D%222%22%20value%3D%22Renato%26amp%3Bnbsp%3B%20%3D%26amp%3Bnbsp%3B%2035p%C3%A7%20por%20hr%22%20style%3D%22text%3Bhtml%3D1%3Balign%3Dcenter%3BverticalAlign%3Dmiddle%3Bresizable%3D0%3Bpoints%3D%5B%5D%3Bautosize%3D1%3BstrokeColor%3Dnone%3BfillColor%3Dnone%3Bcontainer%3D0%3B%22%20vertex%3D%221%22%20parent%3D%221%22%3E%3CmxGeometry%20x%3D%22108.23529411764707%22%20y%3D%22262.45614035087715%22%20width%3D%22140%22%20height%3D%2230%22%20as%3D%22geometry%22%2F%3E%3C%2FmxCell%3E%3C%2Froot%3E%3C%2FmxGraphModel%3E&lt;/span&gt;&lt;span style=&quot;color: rgba(0, 0, 0, 0); font-family: monospace; font-size: 0px; text-align: start;&quot;&gt;%3CmxGraphModel%3E%3Croot%3E%3CmxCell%20id%3D%220%22%2F%3E%3CmxCell%20id%3D%221%22%20parent%3D%220%22%2F%3E%3CmxCell%20id%3D%222%22%20value%3D%22Renato%26amp%3Bnbsp%3B%20%3D%26amp%3Bnbsp%3B%2035p%C3%A7%20por%20hr%22%20style%3D%22text%3Bhtml%3D1%3Balign%3Dcenter%3BverticalAlign%3Dmiddle%3Bresizable%3D0%3Bpoints%3D%5B%5D%3Bautosize%3D1%3BstrokeColor%3Dnone%3BfillColor%3Dnone%3Bcontainer%3D0%3B%22%20vertex%3D%221%22%20parent%3D%221%22%3E%3CmxGeometry%20x%3D%22108.23529411764707%22%20y%3D%22262.45614035087715%22%20width%3D%22140%22%20height%3D%2230%22%20as%3D%22geometry%22%2F%3E%3C%2FmxCell%3E%3C%2Froot%3E%3C%2FmxGraphModel%3E&lt;/span&gt;or hr" style="text;html=1;align=center;verticalAlign=middle;resizable=0;points=[];autosize=1;strokeColor=none;fillColor=none;container=0;" vertex="1" parent="1">
          <mxGeometry x="539.9929411764706" y="408.9966666666666" width="140" height="30" as="geometry" />
        </mxCell>
        <mxCell id="tAIOkptniv0qNmcYxeoT-19" value="Juliana&amp;nbsp; =&amp;nbsp; 40pç por hr" style="text;html=1;align=center;verticalAlign=middle;resizable=0;points=[];autosize=1;strokeColor=none;fillColor=none;container=0;" vertex="1" parent="1">
          <mxGeometry x="795.005294117647" y="319.9994736842105" width="140" height="30" as="geometry" />
        </mxCell>
        <mxCell id="tAIOkptniv0qNmcYxeoT-20" value="Alana&amp;nbsp; =&amp;nbsp; 38pç po&lt;span style=&quot;color: rgba(0, 0, 0, 0); font-family: monospace; font-size: 0px; text-align: start;&quot;&gt;%3CmxGraphModel%3E%3Croot%3E%3CmxCell%20id%3D%220%22%2F%3E%3CmxCell%20id%3D%221%22%20parent%3D%220%22%2F%3E%3CmxCell%20id%3D%222%22%20value%3D%22Juliana%26amp%3Bnbsp%3B%20%3D%26amp%3Bnbsp%3B%2040p%C3%A7%20por%20hr%22%20style%3D%22text%3Bhtml%3D1%3Balign%3Dcenter%3BverticalAlign%3Dmiddle%3Bresizable%3D0%3Bpoints%3D%5B%5D%3Bautosize%3D1%3BstrokeColor%3Dnone%3BfillColor%3Dnone%3Bcontainer%3D0%3B%22%20vertex%3D%221%22%20parent%3D%221%22%3E%3CmxGeometry%20x%3D%22108.23529411764707%22%20y%3D%22355.7894736842105%22%20width%3D%22140%22%20height%3D%2230%22%20as%3D%22geometry%22%2F%3E%3C%2FmxCell%3E%3C%2Froot%3E%3C%2FmxGraphModel%3E&lt;/span&gt;r hr" style="text;html=1;align=center;verticalAlign=middle;resizable=0;points=[];autosize=1;strokeColor=none;fillColor=none;container=0;" vertex="1" parent="1">
          <mxGeometry x="795.0029411764706" y="362.9922807017543" width="140" height="30" as="geometry" />
        </mxCell>
        <mxCell id="tAIOkptniv0qNmcYxeoT-22" value="quanto tempo 1.300pç" style="rounded=1;whiteSpace=wrap;html=1;fillColor=#B0B0B0;container=0;" vertex="1" parent="1">
          <mxGeometry x="541.9976470588235" y="479.999649122807" width="131.76470588235293" height="39.29824561403508" as="geometry" />
        </mxCell>
        <mxCell id="tAIOkptniv0qNmcYxeoT-36" value="?" style="rounded=1;whiteSpace=wrap;html=1;fillColor=#B0B0B0;container=0;" vertex="1" parent="1">
          <mxGeometry x="799.12" y="430" width="130.88" height="40" as="geometry" />
        </mxCell>
        <mxCell id="tAIOkptniv0qNmcYxeoT-37" value="Voltar" style="rounded=1;whiteSpace=wrap;html=1;fillColor=#B0B0B0;container=0;arcSize=27;" vertex="1" parent="1">
          <mxGeometry x="799.1176470588235" y="480.0043859649122" width="131.76470588235293" height="39.29824561403508" as="geometry" />
        </mxCell>
        <mxCell id="tAIOkptniv0qNmcYxeoT-41" value="" style="edgeStyle=orthogonalEdgeStyle;rounded=0;orthogonalLoop=1;jettySize=auto;html=1;" edge="1" parent="1" source="tAIOkptniv0qNmcYxeoT-38" target="tAIOkptniv0qNmcYxeoT-40">
          <mxGeometry relative="1" as="geometry" />
        </mxCell>
        <mxCell id="tAIOkptniv0qNmcYxeoT-38" value="Início" style="ellipse;whiteSpace=wrap;html=1;" vertex="1" parent="1">
          <mxGeometry x="1320" y="100" width="120" height="80" as="geometry" />
        </mxCell>
        <mxCell id="tAIOkptniv0qNmcYxeoT-44" value="" style="edgeStyle=orthogonalEdgeStyle;rounded=0;orthogonalLoop=1;jettySize=auto;html=1;" edge="1" parent="1" source="tAIOkptniv0qNmcYxeoT-40" target="tAIOkptniv0qNmcYxeoT-43">
          <mxGeometry relative="1" as="geometry" />
        </mxCell>
        <mxCell id="tAIOkptniv0qNmcYxeoT-40" value="Carlos = 30pç&lt;div&gt;por hora&lt;/div&gt;" style="rounded=0;whiteSpace=wrap;html=1;" vertex="1" parent="1">
          <mxGeometry x="1320" y="220" width="120" height="60" as="geometry" />
        </mxCell>
        <mxCell id="tAIOkptniv0qNmcYxeoT-46" value="" style="edgeStyle=orthogonalEdgeStyle;rounded=0;orthogonalLoop=1;jettySize=auto;html=1;" edge="1" parent="1" source="tAIOkptniv0qNmcYxeoT-43" target="tAIOkptniv0qNmcYxeoT-45">
          <mxGeometry relative="1" as="geometry" />
        </mxCell>
        <mxCell id="tAIOkptniv0qNmcYxeoT-43" value="Renato = 35pç&lt;div&gt;por hora&lt;/div&gt;" style="rounded=0;whiteSpace=wrap;html=1;" vertex="1" parent="1">
          <mxGeometry x="1490" y="220" width="120" height="60" as="geometry" />
        </mxCell>
        <mxCell id="tAIOkptniv0qNmcYxeoT-48" value="" style="edgeStyle=orthogonalEdgeStyle;rounded=0;orthogonalLoop=1;jettySize=auto;html=1;" edge="1" parent="1" source="tAIOkptniv0qNmcYxeoT-45" target="tAIOkptniv0qNmcYxeoT-47">
          <mxGeometry relative="1" as="geometry" />
        </mxCell>
        <mxCell id="tAIOkptniv0qNmcYxeoT-45" value="Lucas = 37pç&lt;div&gt;por hora&lt;/div&gt;" style="rounded=0;whiteSpace=wrap;html=1;" vertex="1" parent="1">
          <mxGeometry x="1490" y="320" width="120" height="60" as="geometry" />
        </mxCell>
        <mxCell id="tAIOkptniv0qNmcYxeoT-50" value="" style="edgeStyle=orthogonalEdgeStyle;rounded=0;orthogonalLoop=1;jettySize=auto;html=1;" edge="1" parent="1" source="tAIOkptniv0qNmcYxeoT-47" target="tAIOkptniv0qNmcYxeoT-49">
          <mxGeometry relative="1" as="geometry" />
        </mxCell>
        <mxCell id="tAIOkptniv0qNmcYxeoT-47" value="Juliana = 40pç&lt;div&gt;por hora&lt;/div&gt;" style="rounded=0;whiteSpace=wrap;html=1;" vertex="1" parent="1">
          <mxGeometry x="1490" y="420" width="120" height="60" as="geometry" />
        </mxCell>
        <mxCell id="tAIOkptniv0qNmcYxeoT-63" value="" style="edgeStyle=orthogonalEdgeStyle;rounded=0;orthogonalLoop=1;jettySize=auto;html=1;" edge="1" parent="1" source="tAIOkptniv0qNmcYxeoT-49" target="tAIOkptniv0qNmcYxeoT-62">
          <mxGeometry relative="1" as="geometry" />
        </mxCell>
        <mxCell id="tAIOkptniv0qNmcYxeoT-49" value="Alana = 38pç&amp;nbsp;&lt;div&gt;por hora&lt;/div&gt;" style="rounded=0;whiteSpace=wrap;html=1;" vertex="1" parent="1">
          <mxGeometry x="1490" y="525" width="120" height="60" as="geometry" />
        </mxCell>
        <mxCell id="tAIOkptniv0qNmcYxeoT-69" value="" style="edgeStyle=orthogonalEdgeStyle;rounded=0;orthogonalLoop=1;jettySize=auto;html=1;" edge="1" parent="1" source="tAIOkptniv0qNmcYxeoT-51" target="tAIOkptniv0qNmcYxeoT-68">
          <mxGeometry relative="1" as="geometry" />
        </mxCell>
        <mxCell id="tAIOkptniv0qNmcYxeoT-51" value="Quanto tempo&lt;div&gt;1.300pç?&lt;/div&gt;" style="rounded=0;whiteSpace=wrap;html=1;" vertex="1" parent="1">
          <mxGeometry x="1490" y="800" width="120" height="60" as="geometry" />
        </mxCell>
        <mxCell id="tAIOkptniv0qNmcYxeoT-66" value="" style="edgeStyle=orthogonalEdgeStyle;rounded=0;orthogonalLoop=1;jettySize=auto;html=1;" edge="1" parent="1" source="tAIOkptniv0qNmcYxeoT-62" target="tAIOkptniv0qNmcYxeoT-51">
          <mxGeometry relative="1" as="geometry" />
        </mxCell>
        <mxCell id="tAIOkptniv0qNmcYxeoT-67" value="SIM" style="edgeLabel;html=1;align=center;verticalAlign=middle;resizable=0;points=[];" vertex="1" connectable="0" parent="tAIOkptniv0qNmcYxeoT-66">
          <mxGeometry y="-1" relative="1" as="geometry">
            <mxPoint as="offset" />
          </mxGeometry>
        </mxCell>
        <mxCell id="tAIOkptniv0qNmcYxeoT-62" value="Está Correto?" style="rhombus;whiteSpace=wrap;html=1;" vertex="1" parent="1">
          <mxGeometry x="1492.5" y="630" width="115" height="110" as="geometry" />
        </mxCell>
        <mxCell id="tAIOkptniv0qNmcYxeoT-64" value="" style="endArrow=classic;html=1;rounded=0;exitX=0;exitY=0.5;exitDx=0;exitDy=0;entryX=0.5;entryY=1;entryDx=0;entryDy=0;" edge="1" parent="1" source="tAIOkptniv0qNmcYxeoT-62" target="tAIOkptniv0qNmcYxeoT-40">
          <mxGeometry width="50" height="50" relative="1" as="geometry">
            <mxPoint x="1120" y="630" as="sourcePoint" />
            <mxPoint x="1330" y="380" as="targetPoint" />
            <Array as="points">
              <mxPoint x="1380" y="685" />
            </Array>
          </mxGeometry>
        </mxCell>
        <mxCell id="tAIOkptniv0qNmcYxeoT-65" value="NÂO" style="edgeLabel;html=1;align=center;verticalAlign=middle;resizable=0;points=[];" vertex="1" connectable="0" parent="tAIOkptniv0qNmcYxeoT-64">
          <mxGeometry x="-0.7894" y="2" relative="1" as="geometry">
            <mxPoint as="offset" />
          </mxGeometry>
        </mxCell>
        <mxCell id="tAIOkptniv0qNmcYxeoT-71" value="" style="edgeStyle=orthogonalEdgeStyle;rounded=0;orthogonalLoop=1;jettySize=auto;html=1;" edge="1" parent="1" source="tAIOkptniv0qNmcYxeoT-68" target="tAIOkptniv0qNmcYxeoT-70">
          <mxGeometry relative="1" as="geometry" />
        </mxCell>
        <mxCell id="tAIOkptniv0qNmcYxeoT-68" value="?" style="rounded=0;whiteSpace=wrap;html=1;" vertex="1" parent="1">
          <mxGeometry x="1490" y="910" width="120" height="60" as="geometry" />
        </mxCell>
        <mxCell id="tAIOkptniv0qNmcYxeoT-70" value="Voltar" style="ellipse;whiteSpace=wrap;html=1;" vertex="1" parent="1">
          <mxGeometry x="1490" y="1020" width="120" height="80" as="geometry" />
        </mxCell>
        <mxCell id="tAIOkptniv0qNmcYxeoT-72" value="" style="endArrow=classic;html=1;rounded=0;exitX=1;exitY=0.5;exitDx=0;exitDy=0;entryX=1;entryY=0.5;entryDx=0;entryDy=0;" edge="1" parent="1" source="tAIOkptniv0qNmcYxeoT-70" target="tAIOkptniv0qNmcYxeoT-38">
          <mxGeometry width="50" height="50" relative="1" as="geometry">
            <mxPoint x="1120" y="730" as="sourcePoint" />
            <mxPoint x="1680" y="90" as="targetPoint" />
            <Array as="points">
              <mxPoint x="1710" y="1060" />
              <mxPoint x="1710" y="140" />
            </Array>
          </mxGeometry>
        </mxCell>
      </root>
    </mxGraphModel>
  </diagram>
</mxfile>
